<mxfile host="app.diagrams.net" modified="2021-02-21T07:53:13.506Z" agent="5.0 (Windows NT 10.0; Win64; x64) AppleWebKit/537.36 (KHTML, like Gecko) Chrome/88.0.4324.182 Safari/537.36" etag="vO3GNr51o3ELOBiK93ec" version="14.4.2" type="github">
  <diagram id="THhWl12ajoafVY7PFX1S" name="Page-1">
    <mxGraphModel dx="723" dy="375" grid="1" gridSize="10" guides="1" tooltips="1" connect="1" arrows="1" fold="1" page="1" pageScale="1" pageWidth="826" pageHeight="1169" math="0" shadow="0">
      <root>
        <mxCell id="0" />
        <mxCell id="1" parent="0" />
        <mxCell id="j6tWP-xegQ-3qYrbQ2qa-1" value="START" style="ellipse;whiteSpace=wrap;html=1;" parent="1" vertex="1">
          <mxGeometry x="80" y="30" width="80" height="40" as="geometry" />
        </mxCell>
        <mxCell id="EMxMzqd2RX8qhB5N6xkI-1" value="&lt;span style=&quot;font-family: &amp;#34;calibri&amp;#34;&quot;&gt;&lt;font style=&quot;font-size: 12px&quot;&gt;run_pre.sh&lt;/font&gt;&lt;/span&gt;" style="rounded=0;whiteSpace=wrap;html=1;" vertex="1" parent="1">
          <mxGeometry x="79" y="110" width="80" height="20" as="geometry" />
        </mxCell>
        <mxCell id="EMxMzqd2RX8qhB5N6xkI-3" value="&lt;span style=&quot;font-family: &amp;#34;calibri&amp;#34;&quot;&gt;&lt;font style=&quot;font-size: 12px&quot;&gt;run_bql.sh&lt;/font&gt;&lt;/span&gt;" style="rounded=0;whiteSpace=wrap;html=1;" vertex="1" parent="1">
          <mxGeometry x="80" y="160" width="80" height="20" as="geometry" />
        </mxCell>
        <mxCell id="EMxMzqd2RX8qhB5N6xkI-4" value="&lt;span style=&quot;font-family: &amp;#34;calibri&amp;#34;&quot;&gt;&lt;font style=&quot;font-size: 12px&quot;&gt;run_trn.sh&lt;/font&gt;&lt;/span&gt;" style="rounded=0;whiteSpace=wrap;html=1;" vertex="1" parent="1">
          <mxGeometry x="80" y="210" width="80" height="20" as="geometry" />
        </mxCell>
        <mxCell id="EMxMzqd2RX8qhB5N6xkI-5" value="&lt;span style=&quot;font-family: &amp;#34;calibri&amp;#34;&quot;&gt;&lt;font style=&quot;font-size: 12px&quot;&gt;run_lrn.sh&lt;/font&gt;&lt;/span&gt;" style="rounded=0;whiteSpace=wrap;html=1;" vertex="1" parent="1">
          <mxGeometry x="78" y="260" width="80" height="20" as="geometry" />
        </mxCell>
        <mxCell id="EMxMzqd2RX8qhB5N6xkI-6" value="&lt;span style=&quot;font-family: &amp;#34;calibri&amp;#34;&quot;&gt;&lt;font style=&quot;font-size: 12px&quot;&gt;run_mle.sh&lt;/font&gt;&lt;/span&gt;" style="rounded=0;whiteSpace=wrap;html=1;" vertex="1" parent="1">
          <mxGeometry x="79" y="320" width="80" height="20" as="geometry" />
        </mxCell>
        <mxCell id="EMxMzqd2RX8qhB5N6xkI-7" value="&lt;span style=&quot;font-family: &amp;#34;calibri&amp;#34;&quot;&gt;&lt;font style=&quot;font-size: 12px&quot;&gt;run_lkp.sh&lt;/font&gt;&lt;/span&gt;" style="rounded=0;whiteSpace=wrap;html=1;" vertex="1" parent="1">
          <mxGeometry x="79" y="380" width="80" height="20" as="geometry" />
        </mxCell>
        <mxCell id="EMxMzqd2RX8qhB5N6xkI-8" value="&lt;span style=&quot;font-family: &amp;#34;calibri&amp;#34;&quot;&gt;&lt;font style=&quot;font-size: 12px&quot;&gt;run_acc.sh&lt;/font&gt;&lt;/span&gt;" style="rounded=0;whiteSpace=wrap;html=1;" vertex="1" parent="1">
          <mxGeometry x="79" y="440" width="80" height="20" as="geometry" />
        </mxCell>
        <mxCell id="EMxMzqd2RX8qhB5N6xkI-9" value="&lt;span style=&quot;font-family: &amp;#34;calibri&amp;#34;&quot;&gt;&lt;font style=&quot;font-size: 12px&quot;&gt;run_vrf.sh&lt;/font&gt;&lt;/span&gt;" style="rounded=0;whiteSpace=wrap;html=1;" vertex="1" parent="1">
          <mxGeometry x="79" y="500" width="80" height="20" as="geometry" />
        </mxCell>
        <mxCell id="EMxMzqd2RX8qhB5N6xkI-10" value="&lt;span style=&quot;font-family: &amp;#34;calibri&amp;#34;&quot;&gt;&lt;font style=&quot;font-size: 12px&quot;&gt;run_swp.sh&lt;/font&gt;&lt;/span&gt;" style="rounded=0;whiteSpace=wrap;html=1;" vertex="1" parent="1">
          <mxGeometry x="79" y="564.5" width="80" height="20" as="geometry" />
        </mxCell>
        <mxCell id="EMxMzqd2RX8qhB5N6xkI-13" value="STOP" style="ellipse;whiteSpace=wrap;html=1;" vertex="1" parent="1">
          <mxGeometry x="78" y="642" width="80" height="40" as="geometry" />
        </mxCell>
      </root>
    </mxGraphModel>
  </diagram>
</mxfile>
